<svg xmlns="http://www.w3.org/2000/svg" viewBox="0 0 149 73" width="149" height="73">
	<style>
		tspan { white-space:pre }
		.shp0 { fill: #000000 } 
		.shp1 { fill: #ffffff } 
	</style>
	<g id="Page 1">
		<path id="Path 1" class="shp0" d="M87.83 16.35C87.79 16.39 87.74 16.43 87.7 16.48C87.77 16.16 87.85 15.85 87.93 15.54C87.96 15.54 88 15.54 88.04 15.54C87.97 15.81 87.9 16.08 87.83 16.35ZM143.16 31.4C141.68 32.45 140.11 33.34 138.51 34.18C138.54 32.43 138.39 30.71 137.92 29.05C137.97 28.72 138.02 28.38 138.06 28.05C138.44 25.04 138.72 20.92 136.06 18.82C135.72 18.56 134.81 18.79 134.14 19.1C133.98 18.95 133.81 18.81 133.64 18.68C133.56 18.44 133.48 18.19 133.41 17.95C133.38 17.83 133.24 17.76 133.05 17.73C133.34 17.35 133.31 16.91 132.63 16.64C132.25 16.49 131.87 16.35 131.49 16.23C131.42 16.15 131.36 16.13 131.32 16.17L131.31 16.17C130.37 15.87 129.42 15.64 128.45 15.47C128.59 15.14 128.85 14.65 129 14.47C129.14 14.31 129.28 14.17 129.43 14.03C129.5 13.97 129.56 13.92 129.62 13.86C129.65 13.84 129.67 13.82 129.69 13.8C129.71 13.79 129.74 13.77 129.77 13.74C130.15 13.45 130.62 12.87 130 12.54C129.43 12.23 128.49 12.4 127.99 12.78C127.13 13.43 126.36 14.15 125.9 15.14C123.89 14.97 121.85 14.98 119.82 15.06C119.88 14.98 119.93 14.9 119.96 14.81C120.14 14.22 119.05 14.28 118.77 14.32C117.21 14.53 115.65 14.73 114.08 14.92C115.45 11.15 117.17 6.35 115.08 2.66C113.89 0.55 111.18 0.08 108.99 0.01C106.55 -0.07 104.09 0.47 101.95 1.64C97.19 4.26 94.84 9.35 93.74 14.78C93.24 14.13 91.44 14.36 91.1 15.25C90.97 15.57 90.87 15.9 90.77 16.22C90.61 16.4 90.49 16.61 90.42 16.86C90.41 16.92 90.4 16.97 90.38 17.03C90.32 17.03 90.25 17.03 90.19 17.03C90.21 16.93 90.23 16.83 90.25 16.72C90.4 16.61 90.5 16.49 90.53 16.36C91.1 14.06 91.69 11.77 92.48 9.54C92.75 8.78 89.97 9.14 89.67 9.96C89.25 11.16 88.89 12.37 88.55 13.59C88.39 13.66 88.2 13.77 88.13 13.91C88.11 13.95 88.1 13.98 88.08 14.02C87.97 13.92 87.81 13.86 87.61 13.84L87.61 12.88C87.61 12.45 84.79 12.84 84.79 13.64L84.79 15.2C84.63 15.28 84.47 15.36 84.32 15.47C84.26 15.53 84.19 15.58 84.13 15.64C84.06 15.71 84.02 15.79 84.01 15.89C84 15.91 84 15.94 83.99 15.96C83.97 15.99 83.96 16.01 83.94 16.03C83.81 16.16 83.75 16.37 83.91 16.5C84.1 16.66 84.42 16.66 84.65 16.66C84.69 16.65 84.74 16.65 84.79 16.65L84.79 17.11C84.57 17.11 84.34 17.11 84.12 17.11L83.71 17.06C83.69 16.67 83.03 16.6 82.36 16.73C82.36 16.68 82.36 16.63 82.36 16.58C82.25 15.99 82.18 15.39 82.13 14.79C82.36 14.71 82.6 14.61 82.81 14.48C82.96 14.38 83.13 14.25 83.13 14.05L83.13 13.85C83.13 13.67 82.72 13.65 82.63 13.65C82.44 13.64 82.24 13.65 82.05 13.69C81.97 12.38 81.96 11.07 81.96 9.76C81.96 8.92 79.14 9.45 79.14 10.52C79.14 12.3 79.15 14.09 79.33 15.86C79.25 15.86 79.16 15.86 79.06 15.87L79.06 14.34C79.06 13.29 77.77 13.12 76.92 13.53C77.23 13.27 77.41 12.91 77.29 12.49C76.88 11.08 76.51 9.66 76.31 8.2C76.13 6.81 73.3 7.53 73.49 8.96C73.69 10.42 74.06 11.83 74.46 13.25C74.7 14.07 75.8 14.14 76.57 13.76C76.34 13.95 76.19 14.21 76.19 14.52L76.19 15.15C76.01 15.05 75.76 14.99 75.43 14.99C74.37 14.99 73.75 15.87 74.03 16.46C73.86 16.44 73.7 16.41 73.53 16.38C73.15 15.13 72.85 13.87 72.82 12.55C72.8 11.61 71.55 11.5 70.71 11.88C70.7 11.82 70.69 11.77 70.66 11.71C70.28 10.91 70.1 10.04 69.88 9.18C69.55 7.83 66.73 8.58 67.06 9.93C67.22 10.57 67.36 11.21 67.58 11.83C67.56 11.84 67.54 11.84 67.52 11.85C67.22 11.93 66.92 12.05 66.67 12.23C65.84 12.31 64.84 12.8 64.92 13.44C64.98 13.92 65.05 14.39 65.13 14.87C64.58 14.96 64.03 15.04 63.49 15.13C63.2 14.34 62.99 13.53 62.87 12.68C62.74 11.76 61.31 11.83 60.54 12.42C59.76 10.36 58.74 8.41 57.42 6.66C54.79 3.22 50.32 2.05 46.17 2.87C44.27 3.25 42.44 4.05 41.13 5.52C39.92 6.87 39.78 8.6 39.96 10.32C40.12 11.81 40.57 14.33 41.54 16.3C41.19 16.28 40.84 16.34 40.6 16.44C40.31 16.55 40.03 16.68 39.76 16.82C37.82 16.85 35.89 16.84 33.96 16.75C29.78 16.56 25.66 15.89 21.46 16.01C20.54 16.04 19.93 16.73 20 17.27C18.95 17.78 18.26 18.59 17.85 19.56C16.12 18.41 14.38 17.29 12.52 16.35C11.83 16 9.22 17.06 10.23 17.57C12.07 18.51 13.8 19.65 15.51 20.79C16.02 21.13 16.83 20.92 17.35 20.72C17.38 20.71 17.44 20.68 17.52 20.64C17.21 22.08 17.36 23.71 17.76 25.14C17.79 25.25 17.85 25.33 17.93 25.41C17.91 25.74 17.91 26.08 17.93 26.42C17.92 26.48 17.92 26.53 17.92 26.59C17.52 26.77 17.21 27.07 17.16 27.42C16.98 28.84 16.89 30.24 16.86 31.65C16.59 31.85 16.4 32.12 16.37 32.45C16.14 35.8 16.41 39.1 16.84 42.4C17.03 45.1 17.53 47.75 18.01 50.4C18.07 50.82 18.13 51.23 18.18 51.65C17.91 52.78 17.78 54.04 17.94 55.13C17.06 55.3 16.21 56 16.71 56.75C17.47 57.91 18.35 58.77 19.32 59.4C18.68 59.29 17.9 59.51 17.44 59.95C16.63 60.76 15.73 61.48 14.91 62.29C14.48 62.72 14.6 63.23 15.2 63.37C15.85 63.52 16.72 63.31 17.2 62.83C18.01 62.03 18.91 61.3 19.73 60.5C19.98 60.25 20.04 59.98 19.93 59.77C23.14 61.5 27.17 61.03 31.05 60.71C30.17 62.3 29.51 63.98 28.88 65.7C28.62 66.42 31.39 66.08 31.68 65.27C32.29 63.59 32.92 61.93 33.78 60.37C37.52 60.49 41.26 60.5 45 60.42C45.15 60.61 45.41 60.73 45.74 60.76C49.01 61.07 52.23 60.66 55.43 60.06C60.22 59.83 65.01 59.54 69.8 59.25C77.32 59.07 84.85 58.91 92.38 58.93C92.48 59.04 92.59 59.15 92.7 59.25C92.97 59.51 93.32 59.6 93.68 59.58C93.74 59.59 93.81 59.6 93.88 59.6C94.59 59.64 95.3 59.69 96.02 59.74C96.17 59.78 96.36 59.8 96.58 59.79L96.58 59.79C97.36 59.86 98.14 59.93 98.93 60C99.1 60.21 99.42 60.34 99.72 60.36C103.52 60.61 107.33 60.88 111.14 61.06C111.28 61.29 111.68 61.4 111.96 61.41C119.03 61.47 127.24 64.21 133.52 59.67C134.02 59.31 133.79 58.79 133.26 58.69C133.15 58.66 133.04 58.65 132.93 58.65C132.94 58.64 132.95 58.62 132.95 58.61C134.15 55.84 135.13 52.97 135.9 50.05C136.26 49.86 136.53 49.56 136.54 49.19C136.59 48.01 136.73 46.79 136.92 45.56C137.08 44.67 137.23 43.78 137.36 42.9C137.74 40.73 138.16 38.53 138.37 36.35C140.65 35.21 142.91 34.02 145 32.54C146.56 31.42 144.21 30.65 143.16 31.4ZM63.26 12.63C63.39 12.82 63.82 12.84 64.01 12.84C64.39 12.84 64.77 12.76 65.12 12.62C65.52 12.45 66.22 12.06 65.89 11.55C65.53 10.99 65.28 10.36 64.91 9.79C64.79 9.6 64.35 9.58 64.16 9.58C63.78 9.58 63.4 9.66 63.06 9.8C62.65 9.97 61.95 10.36 62.29 10.87C62.65 11.43 62.9 12.06 63.26 12.63ZM20.68 10.91C20.9 11.56 21.79 11.56 22.33 11.41C22.8 11.29 23.72 10.8 23.51 10.15C23.3 9.53 23.07 8.86 22.61 8.37C22.13 7.87 21.29 7.96 20.71 8.22C20.3 8.41 19.53 9.06 20.02 9.57C20.4 9.98 20.49 10.34 20.68 10.91ZM30.66 13.9C31.5 13.9 33.73 12.62 31.85 12.62C31 12.62 28.77 13.9 30.66 13.9ZM122.56 12.27C122.91 12.35 123.28 12.31 123.62 12.22C123.94 12.13 124.32 11.98 124.56 11.74C124.91 11.38 125.29 11.01 125.52 10.56C125.62 10.36 125.69 10.16 125.52 9.97C125.33 9.78 125.01 9.73 124.75 9.72C124.38 9.71 123.99 9.8 123.65 9.94C123.39 10.05 123.03 10.24 122.89 10.5C122.79 10.68 122.67 10.85 122.54 11.01C122.53 11.02 122.52 11.03 122.52 11.04C122.5 11.05 122.5 11.06 122.49 11.07C122.42 11.13 122.36 11.2 122.29 11.27C122.13 11.42 121.95 11.63 122.01 11.88C122.08 12.12 122.35 12.23 122.56 12.27ZM135.86 17.69C136.49 17.63 137.26 17.45 137.75 17.03C139.07 15.93 140.36 14.78 141.38 13.39C141.67 13 140.33 13.15 140.26 13.16C139.73 13.26 138.94 13.43 138.6 13.9C137.65 15.2 136.43 16.25 135.21 17.28C134.71 17.69 135.65 17.71 135.86 17.69ZM146.74 44.77L141.87 44.77C141.25 44.77 140.39 45.24 140.31 45.91C140.22 46.65 141.07 46.83 141.62 46.83L146.49 46.83C147.1 46.83 147.96 46.36 148.04 45.69C148.13 44.95 147.29 44.77 146.74 44.77ZM57.02 60.79C56.52 60.87 55.61 61.08 55.38 61.62C54.84 62.89 54.4 64.19 54.02 65.51C53.81 66.25 56.59 65.85 56.82 65.06C57.2 63.74 57.64 62.44 58.18 61.17C58.4 60.64 57.21 60.75 57.02 60.79ZM61.6 63.38C61.25 63.37 60.91 63.44 60.57 63.53C60.24 63.62 59.9 63.74 59.6 63.91C59.46 64 59.27 64.11 59.27 64.3C59.27 64.42 59.26 64.53 59.25 64.65C59.22 64.75 59.19 64.85 59.12 64.93C59.12 64.93 59.13 64.92 59.13 64.92C59.07 65 59.02 65.1 59.15 65.17C59.35 65.29 59.65 65.26 59.86 65.23C60.24 65.2 60.61 65.11 60.96 64.98C61.2 64.9 61.57 64.77 61.76 64.58C61.91 64.41 62 64.29 62.04 64.07C62.08 63.9 62.09 63.73 62.09 63.55C62.09 63.38 61.67 63.38 61.6 63.38ZM116.65 67.05C116.3 66.37 113.61 67.38 113.83 67.81C114.67 69.45 115.77 70.93 116.75 72.49C117.19 73.17 119.79 72.07 119.57 71.73C118.59 70.17 117.5 68.69 116.65 67.05ZM120.74 64.71C120.45 64.13 119.68 64.15 119.12 64.3C118.77 64.39 117.63 64.9 117.92 65.47C118.31 66.25 118.7 67.03 119.09 67.81C119.38 68.4 120.16 68.37 120.71 68.22C121.06 68.13 122.2 67.62 121.91 67.05C121.52 66.27 121.13 65.49 120.74 64.71ZM5.67 43.11C4.18 43.46 2.66 43.68 1.19 44.08C0.65 44.23 -0.16 44.72 0.03 45.4C0.21 46.07 1.15 46.11 1.69 45.96C3.17 45.56 4.69 45.35 6.17 44.99C6.71 44.86 7.51 44.34 7.33 43.67C7.15 42.98 6.21 42.98 5.67 43.11Z" />
		<path id="Path 2" class="shp1" d="M43.75 40.11C43.67 37.4 43.24 34.71 43.27 32C43.3 29.81 43.67 27.55 42.91 25.44C42.96 25.21 43.01 24.97 43.05 24.73C43.25 23.67 39.75 24.23 39.2 25.2C38.86 25.48 38.68 25.82 38.82 26.16C38.86 26.25 38.89 26.34 38.93 26.42C38.26 29.66 37.34 32.79 36.28 35.92C35.88 37.12 35.39 38.29 34.97 39.49C34.38 38.37 33.79 37.27 33.31 36.08C31.93 32.62 30.68 29.11 28.99 25.78C29.18 24.24 25.76 24.4 25.08 25.81C24.26 27.52 24.37 29.25 24.64 31.07C24.94 33.13 24.99 35.16 25.02 37.24C25.07 41.25 25.38 45.26 25.44 49.27C25.08 49.67 24.97 50.16 25.35 50.66C25.51 50.87 25.71 51.04 25.92 51.21C26.84 51.94 29.46 51.32 29.45 49.93C29.44 45.77 29.14 41.62 29.03 37.46C29.02 37.05 29.01 36.64 29 36.23C29.06 36.38 29.12 36.53 29.18 36.67C29.82 38.29 30.5 39.86 31.38 41.37C32.26 42.86 32.7 44.46 33.2 46.09C33.01 46.31 32.9 46.55 32.97 46.8C32.93 46.98 33.04 47.1 33.22 47.17C33.87 47.72 35.08 47.44 35.75 47.16C36.04 47.04 36.32 46.9 36.59 46.73C36.93 46.52 37.48 46.04 37.32 45.56C37.29 45.47 37.26 45.37 37.23 45.28C37.71 44 37.95 42.67 38.21 41.32C38.48 39.87 39 38.51 39.52 37.14C39.57 37.77 39.62 38.39 39.67 39.02C39.88 41.59 39.71 44.13 39.68 46.71C39.67 47.57 39.73 48.36 39.9 49.2C39.97 49.54 40.27 51.02 40.18 51.1C39.57 51.67 39.75 52.37 40.57 52.55C41.5 52.75 42.67 52.44 43.37 51.8C44.58 50.68 44.01 48.93 43.73 47.52C43.27 45.16 43.83 42.51 43.75 40.11ZM52.19 40.79C52.12 38.78 51.42 36.89 51.41 34.86C51.4 32.54 51.59 30.23 51.25 27.92C51.15 27.18 47.16 28.02 47.3 28.97C47.61 31.1 47.5 33.24 47.46 35.39C47.43 37.45 47.93 39.32 48.2 41.34C48.47 43.42 48.11 45.54 48.35 47.62C48.46 48.59 49.11 50.38 48.44 51.23C48.02 51.77 49.92 51.57 50.01 51.56C50.78 51.41 51.82 51.16 52.33 50.51C52.99 49.67 52.53 48.06 52.39 47.12C52.07 45.04 52.27 42.89 52.19 40.79ZM68.67 37.44C66.59 34.63 62.73 36.65 60.03 35.88C58.64 35.49 58.62 33.59 58.63 32.46C58.63 31.02 58.51 29.7 58.35 28.27C58.23 27.21 58.33 26.13 59.1 25.34C59.25 25.2 59.97 25 59.92 25C60.28 24.94 60.6 24.92 61 24.91C62.56 24.84 65.65 25.14 65.05 27.41C64.79 28.43 68.68 27.85 68.97 26.77C70.19 22.13 61.62 23.02 59.19 23.66C56.96 24.26 54.5 25.53 54.37 28.1C54.31 29.33 54.65 30.5 54.7 31.72C54.76 33.13 54.5 34.52 54.99 35.88C56.09 38.89 60.56 37.47 62.84 37.64C66.72 37.93 65.56 43.16 65.61 45.59C65.64 46.89 66.81 49.05 65.83 50.14C65.23 50.81 63.83 50.85 63.01 50.92C62.19 50.99 60.79 51.23 60.24 50.45C59.24 49.02 60.34 46.62 60.12 44.98C60 44.04 56.02 44.88 56.17 46.04C56.51 48.69 54.76 52.24 58.59 52.69C61.06 52.98 63.83 52.53 66.16 51.75C67.37 51.35 68.49 50.8 69.43 49.94C70.48 49 70.13 47.58 69.85 46.37C69.17 43.42 70.59 40.03 68.67 37.44ZM86.15 37.25C86.03 33.44 85.46 29.67 85.44 25.85C85.43 23.86 81.44 24.53 81.45 26.2C81.47 29.84 81.95 33.43 82.14 37.06C82.14 37.13 82.15 37.21 82.15 37.28C80.18 37.26 78.22 37.46 76.25 37.53C76.45 32.85 75.63 28.22 75.81 23.55C75.83 22.96 71.9 23.45 71.85 24.6C71.68 29.12 72.45 33.6 72.31 38.12C72.25 40.27 72.06 42.42 72.05 44.58C72.04 45.68 72.22 46.78 72.38 47.87C72.53 48.88 72.87 50.22 72.56 51.22C72.33 52 76.16 51.51 76.46 50.52C77.01 48.73 76.24 46.44 76.05 44.63C75.88 42.89 76.01 41.1 76.14 39.33C78.18 39.2 80.23 39.03 82.27 39.32C82.36 40.71 82.47 42.1 82.6 43.49C82.7 44.66 82.78 45.83 82.8 47C82.81 48.03 82.94 49.52 82.57 50.49C81.79 52.57 85.75 52.4 86.33 50.86C87.04 48.97 86.84 46.62 86.72 44.64C86.56 42.17 86.23 39.72 86.15 37.25ZM103.24 41.76C102.29 38.98 100.85 36.54 99.59 33.89C100.6 31.93 101.63 29.96 102.55 27.95C103.39 26.13 104.01 24.1 105.66 22.81C106.24 22.36 106.21 21.91 105.4 21.85C104.52 21.79 103.32 22.05 102.6 22.6C101.11 23.77 100.16 25.19 99.38 26.91C98.44 28.98 97.46 31.01 96.44 33.04C96.36 33.19 96.29 33.34 96.21 33.49C95.72 33.81 95.42 34.26 95.57 34.76C94.77 36.34 93.95 37.91 93.04 39.42C92.74 33.83 92.08 28.26 91.88 22.67C91.84 21.39 87.88 22.18 87.93 23.73C88.18 30.66 89.16 37.57 89.23 44.5C89.21 44.52 89.2 44.53 89.18 44.55C88.88 44.86 88.99 45.05 89.23 45.16C89.24 46.92 89.17 48.69 89.02 50.46C88.55 51.21 89.49 51.61 90.12 51.61L90.21 51.61C90.96 51.61 92.86 51.26 92.96 50.23C93.15 48.12 93.21 46 93.19 43.88C94.8 42.15 96.11 40.22 97.28 38.2C98.05 39.69 98.78 41.2 99.29 42.82C100.16 45.59 101.61 48.13 102.45 50.91C103 52.73 106.95 51.66 106.4 49.85C105.56 47.07 104.18 44.51 103.24 41.76ZM112.21 36.93C112.1 35.68 111.99 34.42 111.9 33.16C111.74 30.81 112.02 27.52 114.21 26.09C114.8 25.71 115.9 25.78 116.59 25.65C117.57 25.48 118.56 25.26 119.44 25.84C120.66 26.65 120.36 29.54 120.36 30.76C120.36 32.78 120.57 34.8 120.67 36.82C120.12 36.87 119.55 36.91 118.98 36.89C116.67 36.84 114.39 36.48 112.21 36.93ZM126.96 37.09C126.75 36.25 125.57 36.23 124.67 36.31C124.65 35.97 124.65 35.63 124.63 35.29C124.5 32.61 124.46 29.87 124.24 27.19C124.02 24.71 122.64 23.82 120.23 23.91C117.79 24 114.95 24.44 112.68 25.33C110.05 26.35 108.58 28.29 108.08 31.06C107.52 34.1 108.32 37.34 108.45 40.39C108.61 43.93 108.52 47.47 108.52 51.01C108.52 51.58 112.47 51.04 112.47 49.95C112.47 47.15 112.51 44.34 112.47 41.54C112.45 40.72 112.42 39.9 112.36 39.08C113.75 38.48 116.09 39.09 117.46 39.22C118.58 39.33 119.65 39.06 120.73 38.93C120.76 41.26 120.84 43.61 120.94 45.94C120.99 47.13 121.42 49.5 120.58 50.49C120.14 51.01 122.08 50.83 122.15 50.82C122.95 50.67 123.93 50.42 124.47 49.77C125.43 48.64 124.94 45.95 124.88 44.6C124.8 42.67 124.78 40.74 124.74 38.81C125.9 38.66 127.18 37.94 126.96 37.09ZM48.77 25.18C49.3 25.13 49.83 24.95 50.26 24.65C50.35 24.57 50.43 24.5 50.52 24.43C51.04 24.09 51.5 23.59 51.25 23.06C50.75 21.94 50.83 20.8 50.83 19.61C50.84 18.64 49.86 18.35 49.04 18.43C48.31 18.49 46.85 19.01 46.84 19.96C46.84 20.96 46.77 21.99 46.95 22.98C46.9 23.09 46.88 23.22 46.85 23.34C46.79 23.55 46.86 23.76 46.99 23.93C46.99 23.98 46.99 24.02 46.99 24.07C47 24.18 47.01 24.29 47.01 24.41C47.08 24.64 47.23 24.82 47.44 24.94C47.83 25.18 48.33 25.22 48.77 25.18Z" />
	</g>
</svg>