<svg xmlns="http://www.w3.org/2000/svg" viewBox="0 0 87 37" width="87" height="37">
	<style>
		tspan { white-space:pre }
		.shp0 { fill: #000000 } 
	</style>
	<g id="Page 1">
		<path id="Path 1" class="shp0" d="M5.18 27.3C5.17 23.83 4.92 20.36 4.82 16.89C4.82 16.55 4.81 16.21 4.8 15.87C4.85 15.99 4.9 16.11 4.95 16.24C5.49 17.59 6.05 18.9 6.79 20.15C7.52 21.4 7.89 22.74 8.31 24.09C8.15 24.28 8.05 24.48 8.11 24.69C8.08 24.84 8.17 24.94 8.33 25C8.86 25.46 9.87 25.23 10.44 24.99C10.68 24.89 10.91 24.77 11.13 24.63C11.42 24.45 11.88 24.06 11.75 23.66C11.72 23.58 11.7 23.5 11.68 23.42C12.07 22.35 12.27 21.24 12.49 20.11C12.72 18.91 13.15 17.77 13.58 16.63C13.62 17.15 13.67 17.67 13.71 18.19C13.88 20.34 13.74 22.46 13.72 24.62C13.71 25.33 13.76 25.99 13.9 26.69C13.96 26.98 14.21 28.21 14.14 28.28C13.62 28.75 13.77 29.34 14.46 29.49C15.23 29.66 16.22 29.4 16.8 28.86C17.8 27.93 17.33 26.47 17.1 25.29C16.71 23.32 17.18 21.11 17.12 19.1C17.05 16.84 16.69 14.6 16.72 12.33C16.74 10.5 17.04 8.62 16.41 6.86C16.45 6.66 16.49 6.47 16.53 6.26C16.69 5.39 13.78 5.85 13.32 6.66C13.03 6.89 12.88 7.17 13.01 7.46C13.04 7.53 13.06 7.61 13.09 7.68C12.54 10.38 11.77 12.99 10.88 15.61C10.54 16.61 10.13 17.59 9.79 18.59C9.3 17.65 8.8 16.74 8.4 15.74C7.25 12.85 6.2 9.93 4.79 7.15C4.95 5.86 2.1 5.99 1.53 7.17C0.85 8.6 0.94 10.04 1.16 11.56C1.42 13.28 1.46 14.98 1.48 16.71C1.52 20.06 1.78 23.4 1.83 26.75C1.54 27.08 1.45 27.49 1.76 27.91C1.89 28.09 2.06 28.23 2.24 28.37C3 28.98 5.19 28.46 5.18 27.3ZM23.38 8.93C23.29 8.32 19.96 9.01 20.08 9.81C20.34 11.59 20.24 13.37 20.21 15.16C20.18 16.89 20.61 18.45 20.83 20.14C21.05 21.87 20.76 23.64 20.95 25.37C21.04 26.18 21.59 27.68 21.03 28.39C20.67 28.84 22.27 28.67 22.34 28.66C22.98 28.54 23.85 28.33 24.28 27.79C24.83 27.09 24.44 25.75 24.32 24.96C24.05 23.23 24.22 21.42 24.16 19.68C24.1 18 23.52 16.42 23.51 14.73C23.5 12.78 23.66 10.86 23.38 8.93ZM26.5 15.57C27.41 18.09 31.15 16.9 33.05 17.05C36.29 17.28 35.32 21.65 35.36 23.69C35.39 24.77 36.36 26.57 35.54 27.48C35.04 28.04 33.87 28.07 33.19 28.13C32.5 28.19 31.34 28.39 30.88 27.74C30.04 26.55 30.96 24.54 30.78 23.17C30.68 22.39 27.35 23.09 27.48 24.06C27.77 26.27 26.3 29.23 29.5 29.61C31.56 29.86 33.87 29.48 35.82 28.83C36.83 28.49 37.76 28.04 38.55 27.32C39.42 26.53 39.14 25.34 38.9 24.33C38.33 21.87 39.52 19.04 37.91 16.88C36.18 14.53 32.95 16.22 30.7 15.58C29.54 15.25 29.53 13.67 29.53 12.72C29.53 11.52 29.44 10.42 29.3 9.23C29.2 8.34 29.28 7.44 29.93 6.78C30.05 6.66 30.65 6.5 30.61 6.5C30.91 6.45 31.18 6.43 31.51 6.42C32.81 6.36 35.4 6.62 34.9 8.51C34.67 9.36 37.92 8.88 38.16 7.97C39.18 4.1 32.02 4.84 30 5.38C28.14 5.88 26.09 6.94 25.98 9.09C25.93 10.11 26.21 11.09 26.25 12.11C26.31 13.28 26.09 14.45 26.5 15.57ZM40.95 17.44C40.9 19.24 40.75 21.04 40.73 22.84C40.73 23.76 40.88 24.68 41.01 25.59C41.14 26.43 41.42 27.55 41.17 28.38C40.97 29.03 44.17 28.63 44.42 27.8C44.88 26.3 44.23 24.39 44.08 22.88C43.93 21.43 44.05 19.93 44.15 18.46C45.86 18.35 47.57 18.21 49.27 18.45C49.35 19.61 49.43 20.77 49.54 21.93C49.63 22.91 49.69 23.88 49.71 24.86C49.72 25.72 49.83 26.96 49.52 27.77C48.87 29.5 52.18 29.36 52.66 28.08C53.25 26.5 53.08 24.54 52.98 22.89C52.85 20.83 52.58 18.78 52.51 16.72C52.41 13.54 51.93 10.39 51.92 7.2C51.91 5.54 48.58 6.11 48.59 7.49C48.6 10.53 49 13.53 49.16 16.56C49.16 16.62 49.17 16.68 49.17 16.75C47.53 16.73 45.89 16.89 44.24 16.95C44.41 13.05 43.72 9.18 43.87 5.28C43.89 4.79 40.61 5.2 40.57 6.16C40.43 9.93 41.07 13.67 40.95 17.44ZM55.03 22.82C54.78 23.07 54.88 23.23 55.08 23.32C55.08 24.79 55.03 26.27 54.9 27.75C54.51 28.38 55.29 28.71 55.81 28.71L55.9 28.71C56.52 28.71 58.1 28.41 58.18 27.56C58.35 25.79 58.4 24.02 58.38 22.26C59.72 20.81 60.81 19.2 61.8 17.51C62.44 18.76 63.04 20.01 63.47 21.37C64.2 23.68 65.41 25.8 66.11 28.12C66.57 29.64 69.86 28.74 69.41 27.24C68.71 24.92 67.55 22.77 66.77 20.49C65.98 18.16 64.77 16.13 63.72 13.92C64.57 12.28 65.42 10.63 66.19 8.96C66.89 7.43 67.41 5.74 68.79 4.67C69.27 4.29 69.25 3.91 68.57 3.87C67.83 3.81 66.83 4.03 66.24 4.49C64.99 5.47 64.2 6.65 63.54 8.09C62.76 9.81 61.95 11.51 61.09 13.21C61.03 13.33 60.96 13.45 60.9 13.58C60.49 13.84 60.24 14.22 60.36 14.64C59.7 15.96 59.01 17.27 58.26 18.53C58.01 13.87 57.45 9.21 57.29 4.54C57.25 3.48 53.94 4.14 53.99 5.43C54.2 11.21 55.02 16.99 55.07 22.77C55.06 22.79 55.05 22.8 55.03 22.82ZM79.91 16.42C77.98 16.38 76.08 16.07 74.26 16.46C74.17 15.41 74.07 14.36 74 13.3C73.87 11.34 74.1 8.6 75.93 7.41C76.42 7.09 77.34 7.14 77.91 7.04C78.73 6.89 79.56 6.71 80.3 7.2C81.31 7.88 81.06 10.28 81.06 11.3C81.06 12.99 81.24 14.67 81.32 16.36C80.86 16.4 80.39 16.43 79.91 16.42ZM86.57 16.58C86.39 15.88 85.41 15.87 84.65 15.94C84.64 15.65 84.64 15.37 84.63 15.09C84.52 12.85 84.49 10.56 84.3 8.32C84.12 6.25 82.96 5.51 80.95 5.59C78.92 5.66 76.55 6.03 74.65 6.77C72.45 7.62 71.23 9.24 70.81 11.55C70.34 14.09 71.01 16.79 71.12 19.34C71.25 22.29 71.18 25.25 71.18 28.2C71.18 28.69 74.47 28.23 74.47 27.32C74.48 24.98 74.51 22.64 74.47 20.31C74.46 19.62 74.43 18.93 74.39 18.25C75.54 17.75 77.49 18.26 78.64 18.37C79.57 18.46 80.47 18.23 81.37 18.12C81.39 20.07 81.46 22.03 81.54 23.97C81.59 24.97 81.95 26.95 81.25 27.77C80.88 28.21 82.5 28.06 82.56 28.05C83.22 27.93 84.04 27.71 84.5 27.18C85.3 26.23 84.88 23.98 84.83 22.86C84.77 21.25 84.75 19.64 84.71 18.03C85.69 17.89 86.75 17.3 86.57 16.58ZM19.7 5.11C19.65 5.29 19.71 5.46 19.82 5.6C19.82 5.64 19.82 5.68 19.82 5.72C19.83 5.81 19.83 5.9 19.83 6C19.9 6.19 20.02 6.34 20.2 6.45C20.52 6.64 20.93 6.68 21.3 6.64C21.74 6.6 22.19 6.45 22.55 6.2C22.62 6.14 22.69 6.08 22.77 6.02C23.2 5.74 23.58 5.32 23.38 4.87C22.95 3.94 23.02 2.99 23.03 2C23.03 1.19 22.22 0.95 21.53 1.01C20.92 1.06 19.7 1.5 19.7 2.29C19.69 3.12 19.64 3.99 19.79 4.81C19.75 4.9 19.72 5.01 19.7 5.11ZM81.28 34.29C79.72 33.7 77.99 33.67 76.43 33.5C74.82 33.33 73.18 33.09 71.54 32.94C69.91 32.99 68.23 32.97 66.57 33.07L61.69 33.34C55.2 33.63 48.69 33.59 42.17 33.44C35.66 33.32 29.13 32.97 22.55 32.99C19.26 33 15.98 33.09 12.68 33.24C11.05 33.52 9.44 33.74 7.78 34.15C6.16 34.55 4.63 35.06 2.98 35.2C4.61 35.56 6.33 35.49 7.95 35.5C9.53 35.51 11.19 35.64 12.82 35.73C16.05 35.56 19.31 35.48 22.55 35.47C29.04 35.45 35.57 35.8 42.12 35.92C48.67 36.07 55.23 36.11 61.8 35.81L66.71 35.54C68.31 35.47 69.91 35.42 71.54 35.48C73.16 35.33 74.79 35.15 76.45 34.94C78.12 34.71 79.67 34.32 81.31 34.44L81.38 34.44L81.39 34.39C81.41 34.21 81.35 34.06 81.35 33.91C81.31 34.04 81.31 34.17 81.28 34.29Z" />
	</g>
</svg>